<svg xmlns="http://www.w3.org/2000/svg" width="132.731" height="43.418" viewBox="0 0 132.731 43.418"><defs><style>.a{fill:#161615;}.b{fill:#fff;}</style></defs><path class="a" d="M229.372,776.169a5.867,5.867,0,0,1-5.866,5.868h-121a5.868,5.868,0,0,1-5.868-5.868V744.486a5.868,5.868,0,0,1,5.868-5.867h121a5.867,5.867,0,0,1,5.866,5.867Z" transform="translate(-96.641 -738.619)"/><path class="b" d="M147.431,767.232H136.619a2.346,2.346,0,0,0-2.346,2.346v23.953a2.347,2.347,0,0,0,2.346,2.347h10.811a2.347,2.347,0,0,0,2.347-2.347V769.578A2.346,2.346,0,0,0,147.431,767.232Zm-5.406,26.923a1.563,1.563,0,1,1,1.563-1.563A1.562,1.562,0,0,1,142.025,794.155Zm5.91-3.887h-11.82V772.6h11.82Z" transform="translate(-124.507 -759.807)"/><g transform="translate(32.624 7.019)"><path class="b" d="M223.859,771.305l-.657,1.99h-.845l2.15-6.328h.986l2.159,6.328h-.873l-.676-1.99Zm2.075-.638-.629-1.822c-.132-.414-.225-.789-.319-1.155h-.027c-.085.366-.188.761-.31,1.145l-.619,1.831Z" transform="translate(-222.357 -766.63)"/><path class="b" d="M243.5,773.842l.892,2.545c.151.422.272.8.367,1.173h.028c.1-.375.234-.751.385-1.173l.883-2.545h.864l-1.785,4.544h-.789l-1.726-4.544Z" transform="translate(-237.362 -771.721)"/><path class="b" d="M263.688,777a7.617,7.617,0,0,0,.066,1.089h-.742l-.076-.572h-.028a1.677,1.677,0,0,1-1.39.676,1.294,1.294,0,0,1-1.389-1.3c0-1.1.977-1.7,2.732-1.69v-.094a.932.932,0,0,0-1.032-1.051,2.189,2.189,0,0,0-1.193.337l-.188-.555a2.952,2.952,0,0,1,1.5-.394c1.4,0,1.737.948,1.737,1.859Zm-.808-1.231c-.9-.018-1.924.141-1.924,1.024a.723.723,0,0,0,.769.789,1.148,1.148,0,0,0,1.118-.76.856.856,0,0,0,.037-.263Z" transform="translate(-250.328 -771.426)"/><path class="b" d="M278.8,767.6a.53.53,0,0,1,.019-1.06.508.508,0,0,1,.526.525.517.517,0,0,1-.535.535Zm-.393,5.38v-4.544h.826v4.544Z" transform="translate(-263.774 -766.31)"/><path class="b" d="M287.043,765.667h.826v6.666h-.826Z" transform="translate(-270.257 -765.667)"/><path class="b" d="M297.511,777a7.663,7.663,0,0,0,.066,1.089h-.742l-.075-.572h-.028a1.678,1.678,0,0,1-1.39.676,1.3,1.3,0,0,1-1.389-1.3c0-1.1.977-1.7,2.733-1.69v-.094a.933.933,0,0,0-1.034-1.051,2.183,2.183,0,0,0-1.191.337l-.189-.555a2.951,2.951,0,0,1,1.5-.394c1.4,0,1.737.948,1.737,1.859Zm-.807-1.231c-.9-.018-1.925.141-1.925,1.024a.724.724,0,0,0,.77.789,1.148,1.148,0,0,0,1.118-.76.84.84,0,0,0,.038-.263Z" transform="translate(-275.373 -771.426)"/><path class="b" d="M312.477,765.667h.827v2.844h.019a1.685,1.685,0,0,1,1.548-.826c1.127,0,1.916.939,1.916,2.31a2.169,2.169,0,0,1-2.046,2.441,1.627,1.627,0,0,1-1.521-.855h-.02l-.047.751h-.712c.028-.311.037-.77.037-1.173Zm.827,4.845a1.487,1.487,0,0,0,.029.3,1.282,1.282,0,0,0,1.239.967c.873,0,1.38-.7,1.38-1.747,0-.92-.469-1.7-1.352-1.7a1.371,1.371,0,0,0-1.3,1.361Z" transform="translate(-289.063 -765.667)"/><path class="b" d="M332.986,765.667h.826v6.666h-.826Z" transform="translate(-304.277 -765.667)"/><path class="b" d="M340.8,775.934a1.448,1.448,0,0,0,1.549,1.577,3.131,3.131,0,0,0,1.258-.226l.15.582a3.7,3.7,0,0,1-1.521.291A2.12,2.12,0,0,1,340,775.868a2.216,2.216,0,0,1,2.141-2.46,1.918,1.918,0,0,1,1.868,2.14,2.138,2.138,0,0,1-.028.395Zm2.413-.591A1.18,1.18,0,0,0,342.077,774a1.363,1.363,0,0,0-1.267,1.343Z" transform="translate(-309.473 -771.399)"/><path class="b" d="M367.612,778.195a2.166,2.166,0,0,1-2.178-2.338,2.224,2.224,0,0,1,2.253-2.413,2.149,2.149,0,0,1,2.187,2.328,2.227,2.227,0,0,1-2.253,2.422Zm.028-.619c.789,0,1.38-.742,1.38-1.775,0-.77-.384-1.737-1.361-1.737s-1.389.9-1.389,1.765c0,1,.563,1.747,1.361,1.747Z" transform="translate(-328.305 -771.426)"/><path class="b" d="M386.271,774.778c0-.48-.011-.855-.039-1.231h.733l.046.741h.019a1.684,1.684,0,0,1,1.5-.845c.629,0,1.607.376,1.607,1.934v2.713h-.828v-2.62c0-.731-.272-1.352-1.052-1.352a1.192,1.192,0,0,0-1.108.845,1.237,1.237,0,0,0-.056.385v2.741h-.825Z" transform="translate(-343.706 -771.426)"/><path class="b" d="M413.287,769.647v1.089h1.182v.629h-1.182v2.451c0,.563.16.883.619.883a1.54,1.54,0,0,0,.48-.056l.037.629a2.243,2.243,0,0,1-.732.113,1.181,1.181,0,0,1-.893-.347,1.784,1.784,0,0,1-.319-1.193v-2.479h-.7v-.629h.7V769.9Z" transform="translate(-362.62 -768.614)"/><path class="b" d="M425.557,765.667h.826V768.5h.018a1.466,1.466,0,0,1,.592-.582,1.607,1.607,0,0,1,.845-.235c.61,0,1.585.376,1.585,1.944v2.7H428.6v-2.609c0-.741-.273-1.353-1.052-1.353a1.2,1.2,0,0,0-1.107.827,1,1,0,0,0-.057.395v2.741h-.826Z" transform="translate(-372.826 -765.667)"/><path class="b" d="M444.984,775.934a1.449,1.449,0,0,0,1.549,1.577,3.14,3.14,0,0,0,1.259-.226l.149.582a3.7,3.7,0,0,1-1.521.291,2.12,2.12,0,0,1-2.234-2.291,2.216,2.216,0,0,1,2.141-2.46,1.919,1.919,0,0,1,1.869,2.14,2.109,2.109,0,0,1-.029.395Zm2.413-.591A1.18,1.18,0,0,0,446.26,774a1.362,1.362,0,0,0-1.268,1.343Z" transform="translate(-386.62 -771.399)"/><path class="b" d="M470.929,767.6a.53.53,0,0,1,.018-1.06.508.508,0,0,1,.526.525.518.518,0,0,1-.536.535Zm-.4,5.38v-4.544h.826v4.544Z" transform="translate(-406.041 -766.31)"/><path class="b" d="M479.275,766.918a8.488,8.488,0,0,1,1.568-.131,2.592,2.592,0,0,1,1.773.526,1.705,1.705,0,0,1,.564,1.323,1.826,1.826,0,0,1-.5,1.352,2.618,2.618,0,0,1-1.934.695,2.87,2.87,0,0,1-.657-.056v2.534h-.817Zm.817,3.042a2.785,2.785,0,0,0,.676.066c.995,0,1.587-.488,1.587-1.342s-.592-1.248-1.493-1.248a4.063,4.063,0,0,0-.77.066Z" transform="translate(-412.604 -766.496)"/><path class="b" d="M498.053,765.667h.827V768.5h.019a1.47,1.47,0,0,1,.591-.582,1.612,1.612,0,0,1,.845-.235c.61,0,1.586.376,1.586,1.944v2.7H501.1v-2.609c0-.741-.272-1.353-1.052-1.353a1.2,1.2,0,0,0-1.108.827,1,1,0,0,0-.056.395v2.741h-.827Z" transform="translate(-426.509 -765.667)"/><path class="b" d="M518.862,778.195a2.166,2.166,0,0,1-2.178-2.338,2.224,2.224,0,0,1,2.254-2.413,2.149,2.149,0,0,1,2.187,2.328,2.226,2.226,0,0,1-2.252,2.422Zm.029-.619c.787,0,1.38-.742,1.38-1.775,0-.77-.385-1.737-1.362-1.737s-1.39.9-1.39,1.765c0,1,.563,1.747,1.361,1.747Z" transform="translate(-440.305 -771.426)"/><path class="b" d="M537.524,774.778c0-.48-.01-.855-.038-1.231h.733l.046.741h.019a1.685,1.685,0,0,1,1.5-.845c.629,0,1.6.376,1.6,1.934v2.713h-.825v-2.62c0-.731-.272-1.352-1.052-1.352a1.191,1.191,0,0,0-1.107.845,1.22,1.22,0,0,0-.058.385v2.741h-.825Z" transform="translate(-455.709 -771.426)"/><path class="b" d="M557.058,775.934a1.449,1.449,0,0,0,1.549,1.577,3.128,3.128,0,0,0,1.257-.226l.151.582a3.7,3.7,0,0,1-1.521.291,2.12,2.12,0,0,1-2.235-2.291,2.216,2.216,0,0,1,2.14-2.46,1.918,1.918,0,0,1,1.869,2.14,2.145,2.145,0,0,1-.028.395Zm2.413-.591A1.18,1.18,0,0,0,558.335,774a1.362,1.362,0,0,0-1.268,1.343Z" transform="translate(-469.611 -771.399)"/></g><g transform="translate(32.449 17.71)"><path class="b" d="M227.25,807.87l-5.567,16.386h2.549l1.662-5.031h5.39l1.709,5.031h2.62l-5.591-16.386Zm1.321,2.694c.188.731.391,1.491.651,2.311l1.5,4.345h-4.27l1.48-4.373C228.157,812.138,228.371,811.372,228.57,810.564Z" transform="translate(-221.683 -807.609)"/><path class="b" d="M285.121,824.239a4.639,4.639,0,0,0-3.941,1.89l-.1-1.63h-2.268l.013.209c.066,1.015.095,2.133.095,3.737v12.63H281.4v-5.894a4.354,4.354,0,0,0,3.389,1.456,5.112,5.112,0,0,0,3.757-1.6,6.775,6.775,0,0,0,1.659-4.769,6.593,6.593,0,0,0-1.44-4.354A4.716,4.716,0,0,0,285.121,824.239Zm-.618,2.052c2.21,0,3.2,2.047,3.2,4.076,0,2.617-1.262,4.242-3.293,4.242a3,3,0,0,1-2.92-2.3,3.171,3.171,0,0,1-.089-.8v-1.994a3.7,3.7,0,0,1,.079-.612c.012-.068.025-.136.036-.2A3.139,3.139,0,0,1,284.5,826.291Z" transform="translate(-263.988 -819.73)"/><path class="b" d="M334.316,824.239a4.641,4.641,0,0,0-3.942,1.89l-.1-1.63h-2.267l.013.209c.067,1.016.095,2.133.095,3.737v12.63h2.48v-5.894a4.35,4.35,0,0,0,3.388,1.456,5.117,5.117,0,0,0,3.758-1.6,6.781,6.781,0,0,0,1.658-4.769,6.6,6.6,0,0,0-1.441-4.354A4.715,4.715,0,0,0,334.316,824.239Zm-.617,2.052c2.209,0,3.2,2.047,3.2,4.076,0,2.617-1.263,4.242-3.293,4.242a3.005,3.005,0,0,1-2.921-2.3,3.18,3.18,0,0,1-.087-.8v-1.994a3.58,3.58,0,0,1,.079-.614c.012-.067.024-.133.036-.2A3.138,3.138,0,0,1,333.7,826.291Z" transform="translate(-300.417 -819.73)"/><path class="b" d="M397.1,814.067c-2.314-.9-3.055-1.6-3.055-2.9,0-1.1.871-2.2,2.818-2.2a5.632,5.632,0,0,1,2.91.731l.21.13.7-2.069-.138-.081a7.183,7.183,0,0,0-3.61-.81c-3.162,0-5.37,1.867-5.37,4.538,0,2.154,1.383,3.66,4.352,4.739,2.1.787,2.886,1.592,2.886,2.973,0,1.563-1.208,2.533-3.151,2.533a6.787,6.787,0,0,1-3.573-1.013l-.215-.138-.666,2.117.122.081a8.489,8.489,0,0,0,4.189,1.077c4.261,0,5.772-2.6,5.772-4.823C401.286,816.654,400.075,815.239,397.1,814.067Z" transform="translate(-347.212 -806.863)"/><path class="b" d="M435.24,814.365l-2.432.764v2.059h-1.78v1.982h1.78v6.07a4.639,4.639,0,0,0,.858,3.145,3.179,3.179,0,0,0,2.4.942,5.824,5.824,0,0,0,1.916-.3l.139-.049L438,827l-.238.073a3.742,3.742,0,0,1-1.153.133c-.961,0-1.371-.608-1.371-2.035v-6h2.99v-1.982h-2.99Z" transform="translate(-376.703 -812.418)"/><path class="b" d="M465.647,824.239c-3.469,0-5.891,2.589-5.891,6.294,0,3.595,2.344,6.1,5.7,6.1h.023c2.838,0,5.891-1.977,5.891-6.318a6.265,6.265,0,0,0-1.58-4.385A5.517,5.517,0,0,0,465.647,824.239Zm-.071,1.957c2.23,0,3.245,2.174,3.245,4.2,0,2.485-1.385,4.289-3.292,4.289H465.5c-1.88,0-3.245-1.774-3.245-4.218C462.259,828.339,463.284,826.2,465.576,826.2Z" transform="translate(-397.975 -819.73)"/><path class="b" d="M516.167,824.354l-.148-.038a2.386,2.386,0,0,0-.617-.077,3.536,3.536,0,0,0-3.108,2l-.073-1.735H510l.014.209c.066.981.094,2.083.094,3.57l-.023,8.1h2.48v-6.319a6.487,6.487,0,0,1,.068-.961,2.741,2.741,0,0,1,2.609-2.5,6.366,6.366,0,0,1,.666.041l.265.028Z" transform="translate(-435.178 -819.73)"/><path class="b" d="M539.26,824.148c-3.3,0-5.606,2.637-5.606,6.413,0,3.636,2.294,5.986,5.843,5.986a9.511,9.511,0,0,0,3.925-.753l.149-.067-.476-1.847-.207.084a7.682,7.682,0,0,1-3.106.555,3.447,3.447,0,0,1-3.713-3.594l8,.024.032-.158a5.483,5.483,0,0,0,.075-1.035C544.178,827.168,542.89,824.148,539.26,824.148Zm-.166,1.886a2.445,2.445,0,0,1,1.82.694,3.526,3.526,0,0,1,.854,2.307h-5.653C536.344,827.6,537.24,826.034,539.094,826.034Z" transform="translate(-452.697 -819.663)"/></g></svg>