<svg xmlns="http://www.w3.org/2000/svg" xmlns:xlink="http://www.w3.org/1999/xlink" width="119" height="39" viewBox="0 0 119 39"><defs><clipPath id="b"><rect width="119" height="39"/></clipPath></defs><g id="a" clip-path="url(#b)"><g transform="translate(1 1)"><path d="M175.2,151.1a15.241,15.241,0,0,0-9.24-2.693,5.664,5.664,0,0,0-4.506,2.446c-1.4-2.446-4.18-3.947-8.466-3.913-6.921.085-13.794,3.281-19.235,3.281-5.223,0-9.027-3.281-8.9-9.1.22-10.214,8.847-19.42,15.3-23.564,3.709-2.382,6.813-3.09,8.844-2.862a2.967,2.967,0,0,1,2.141,4.4c-1.649,3.694-3.93,3.386-3.847,1.619a2.911,2.911,0,0,1,1.384-2.264,2.8,2.8,0,0,1,1.344-.331c.322-.274.572-2.3-2.081-1.63s-5.854,3.277-8.9,6.642-7.792,9.74-8.965,16.424c-.544,3.105-.177,8.755,7.168,8.692,6.227-.055,15.425-4.162,23.869-4.087a16.1,16.1,0,0,1,8.358,2.285c2.191,1.352,4.812,3.318,5.739,4.657m2-18.519h1.279s-6.4,9.251-10.017,8.834c-2.018-.235-1.419-2.729-1.419-2.729s-2.843,3.321-5.436,2.659c-2.362-.606-.842-4.537-.842-4.537-.269.111-5.375,5.878-8.968,4.494-3.758-1.448-1.812-6.272-1.094-7.724.6-1.221,1.269-2.415,1.269-2.415s-.574.166-.932.248-.9.189-.9.189-1.777,2.889-2.86,4.329-5.7,6.4-8.421,5.415-2.052-4.792-.524-7.816c2.477-4.906,8.357-10.933,11.9-10.03,3.577.912.619,6.717.619,6.717s.71.092,2.415-1.073c2.462-1.676,5.7-6.187,9.208-5.658,1.647.246,3.183,1.94,1.085,5.15-.674,1.031-1.8,1.954-2.664,1.045-.536-.563-.07-1.6.493-2.308a2.223,2.223,0,0,1,1.9-.866s.574-1.331-.9-1.3c-1.193.021-4.215,2.809-5.919,5.617-1.566,2.584-3.934,6.985-1.554,7.943,2.183.882,6.335-4.056,8.257-6.636s6.3-8.445,9.973-8.682a2.444,2.444,0,0,1,2.019,1.072l.429-.674h3.666s-6.917,11.559-7.458,12.433c-.425.685-.989,2.224.576,1.361s4.823-5.056,4.823-5.056M148.71,131.4a8,8,0,0,1-1.892-.862,4,4,0,0,1-1.35-1.495c-.031-.059-.068-.014-.106.035s-.23.3-1.54,2.223-3.25,5.865-1.43,6.535c1.165.433,3.119-1.617,4.175-2.967a33.106,33.106,0,0,0,2.2-3.3c.051-.111,0-.14-.058-.165m1.45-6.14c-.96-.727-3.414.976-3.428,2.718-.012,1.783,2.217,2.292,2.5,2.3a.3.3,0,0,0,.349-.143,15.017,15.017,0,0,0,.7-1.577c.34-.887.769-2.621-.13-3.3m18.714,9.624c1.483-2.034,5.571-9.159,5.571-9.159a.6.6,0,0,0-.542-.524c-.567-.023-1.505.165-3.386,2.516a44.1,44.1,0,0,0-4.39,6.164c-1.162,2.121-1.67,3.622-1,4.025a.99.99,0,0,0,.7.074,4.2,4.2,0,0,0,1.788-1.446c.364-.421.777-.987,1.263-1.65m16.5-11.034h-3.488l-1.97,3.191h3.487Zm51.473-5.727c-2.577,1.657-6.151,3.159-9.58,2.829-.868.9-1.8,1.939-2.732,3.074,5.954,1.173,11.161-2.512,13.933-5.655a18.54,18.54,0,0,0,2.585-3.71,23.164,23.164,0,0,1-4.207,3.462m-10.2,27.044c-.495.791-1.056,2.3.575,1.359,1.99-1.146,4.814-5.442,4.814-5.442h1.277a43.141,43.141,0,0,1-3.883,5.1c-2.012,2.23-4.466,4.258-6.192,4.058-2.022-.234-1.391-2.888-1.391-2.888s-2.9,3.079-4.89,2.86c-2.7-.3-1.878-3.636-1.878-3.636s-3.049,3.755-5.128,3.636c-3.266-.188-2.446-4.166-1.539-6.952.484-1.491.935-2.67.935-2.67s-.326.083-1.018.191c-.365.05-1.026.088-1.026.088a44.167,44.167,0,0,1-2.439,3.839c-1.087,1.444-5.7,6.405-8.422,5.414-2.511-.916-1.685-4.766-.223-7.822,2.134-4.459,8.135-10.864,11.6-10.025,3.588.868.084,7.421.084,7.421s0,.022.04.038a1.462,1.462,0,0,0,.691-.035,7.785,7.785,0,0,0,1.312-.39,76.328,76.328,0,0,1,7.592-12.507c3.984-4.946,11.933-13.459,15.056-11.4.768.506.414,2.249-.609,4.369-.455.142-.926.27-1.41.37a11.549,11.549,0,0,0,1.279-3.034c.467-2.558-5.5,2.83-9.756,8.624a80.221,80.221,0,0,0-6.816,11.049,18.222,18.222,0,0,0,2.2-1.564,65.011,65.011,0,0,0,5.415-5.057,60.232,60.232,0,0,0,4.6-5.318q.693-.04,1.354-.142a58.585,58.585,0,0,1-5.081,6.009c-1.694,1.718-3.535,3.57-5.137,4.917a42.579,42.579,0,0,1-4.507,3.354s-3.734,7.51-1.706,8c1.191.281,3.547-3.343,3.547-3.343s3.07-4.691,4.916-6.8c2.526-2.875,4.7-4.532,6.871-4.568a2.583,2.583,0,0,1,2.014,1.326l.6-.921h3.668s-6.843,11.619-7.387,12.495M206.029,140.6a7.615,7.615,0,0,1-1.688-1.076,5.5,5.5,0,0,1-1.269-1.536c-.034-.059-.07-.013-.106.037s-.186.181-1.5,2.1-3.311,5.892-1.491,6.565c1.165.432,3.1-1.606,4.159-2.957a25.153,25.153,0,0,0,1.952-2.971c.048-.114,0-.141-.061-.163m1.853-3.245c.34-.889.766-2.624-.131-3.3-.959-.729-3.413.975-3.426,2.714a3.017,3.017,0,0,0,2.149,2.7c.238.065.319.056.435-.137a15.526,15.526,0,0,0,.974-1.978m21.057-2.453a1.324,1.324,0,0,0,.109-.25.6.6,0,0,0-.543-.519c-.567-.029-1.343.08-3.366,2.325a30.547,30.547,0,0,0-4.308,6.116c-1.156,2.124-1.623,3.7-.957,4.11a.978.978,0,0,0,.7.072c.457-.111.965-.53,1.745-1.433.369-.424.771-1.021,1.257-1.684,1.332-1.827,4.7-7.581,5.365-8.737m7.913-16.772c-2.577,1.657-6.151,3.159-9.58,2.829-.868.9-1.8,1.939-2.732,3.074,5.954,1.173,11.161-2.512,13.933-5.655a18.54,18.54,0,0,0,2.585-3.71,23.164,23.164,0,0,1-4.207,3.462m-16.725,4.316c-2.819-1.44-4.872-3.2-7.014-4.3-2.046-1.048-3.368-1.483-5.018-1.262a4.849,4.849,0,0,0-.683.167s.857,2.9-2.526,7.786c-3.427,4.944-6.535,4.92-7.417,3.553-.925-1.431.264-4.358,2.263-6.962a25.035,25.035,0,0,1,5.761-4.979s-1.172-.718-4.049.913A40.49,40.49,0,0,0,189.337,129.1c-4.471,6.377-5.363,9.885-6.011,12.647s-.053,5.713,3.009,5.713,6.625-4.67,7.627-6.3c1.863-3.025,3.079-7.663.541-7.023-1.251.315-2.265,1.7-2.908,3.041a12.872,12.872,0,0,0-.918,2.683,10.638,10.638,0,0,0-2.481,1.44,18.656,18.656,0,0,0-2.349,2.084,14.77,14.77,0,0,1,1.764-5.779c1.761-3.571,4.99-5.206,6.815-5.357,1.65-.135,3.792,1.262,1.981,6.429s-7.172,11.428-12.806,11.516c-5.2.074-8.6-6.559-1.373-18.136,8-12.807,17.393-16.733,20.442-17.175s4.041.9,4.041.9a13.111,13.111,0,0,1,5.8-.96c3.724.254,6.607,2.888,10.4,4.734-.993.966-1.937,1.954-2.785,2.88m-13.87-5.017a14.426,14.426,0,0,0-4.712,3.662c-2.541,2.8-4.006,5.934-2.914,6.768.417.319,1.383.369,3.143-1.209a13.916,13.916,0,0,0,3.71-5.152c1.134-2.768.773-4.037.773-4.068" transform="translate(-124.852 -114.649)" fill="#fff"/></g></g></svg>