<svg xmlns="http://www.w3.org/2000/svg" xmlns:xlink="http://www.w3.org/1999/xlink" width="40" height="34" viewBox="0 0 40 34">
  <defs>
    <clipPath id="clip-icon_step">
      <rect width="40" height="34"/>
    </clipPath>
  </defs>
  <g id="icon_step" clip-path="url(#clip-icon_step)">
    <g id="Grupo_32571" data-name="Grupo 32571" transform="translate(1 1)">
      <g id="beer-box" transform="translate(0)">
        <path id="Trazado_31299" data-name="Trazado 31299" d="M36.314,11.051H34.05v-6.6a1.137,1.137,0,0,0-1.136-1.136H31.3l-.031-.291a.717.717,0,0,0,.145-.433V1.223A.724.724,0,0,0,30.688.5H26.061a.724.724,0,0,0-.723.723V2.588a.717.717,0,0,0,.145.433l-.031.291H21.611l-.031-.291a.717.717,0,0,0,.145-.433V1.223A.724.724,0,0,0,21,.5H16.375a.724.724,0,0,0-.723.723V2.588a.719.719,0,0,0,.145.433l-.139,1.288a1.09,1.09,0,0,0,.272.843l.01.01v.611H14.392a1.915,1.915,0,0,0,0,3.831h1.23q-.14.729-.341,1.447H12.205a17.757,17.757,0,0,1-.659-4.795V5.162l.01-.01a1.089,1.089,0,0,0,.278-.74h1.834a.55.55,0,1,0,0-1.1H11.72l-.031-.291a.718.718,0,0,0,.145-.433V1.223A.724.724,0,0,0,11.111.5H6.484a.724.724,0,0,0-.723.723V2.588a.719.719,0,0,0,.145.433l-.031.291H4.463A1.138,1.138,0,0,0,3.327,4.448v6.6H1.136A1.138,1.138,0,0,0,0,12.187v18.8a1.138,1.138,0,0,0,1.136,1.136H5.079a.55.55,0,0,0,0-1.1H1.136a.037.037,0,0,1-.037-.037v-18.8a.037.037,0,0,1,.037-.037H36.314a.037.037,0,0,1,.037.037v18.8a.037.037,0,0,1-.037.037H7.6a.55.55,0,0,0,0,1.1H36.314a1.138,1.138,0,0,0,1.136-1.136v-18.8A1.137,1.137,0,0,0,36.314,11.051Zm-3.364-6.6v6.6H31.782a17.756,17.756,0,0,1-.659-4.795V5.162l.01-.01a1.088,1.088,0,0,0,.277-.74h1.5A.036.036,0,0,1,32.95,4.448ZM22.1,11.051q-.2-.717-.341-1.447h1.23a1.915,1.915,0,0,0,0-3.831H21.436V5.162l.01-.01a1.088,1.088,0,0,0,.277-.74h3.616a1.09,1.09,0,0,0,.278.74l.01.01V6.256a17.767,17.767,0,0,1-.659,4.795ZM16.753,4.414l.119-1.1H20.5l.119,1.1Zm4.694,2.459h1.537a.816.816,0,0,1,0,1.632H21.579Q21.476,7.693,21.447,6.873Zm8.744-3.561.119,1.1H26.439l.119-1.1ZM26.726,6.256V5.513h3.3v.743a18.854,18.854,0,0,0,.619,4.795H26.107A18.866,18.866,0,0,0,26.726,6.256ZM26.438,1.6h3.874v.613H26.438Zm-9.687,0h3.874v.613H16.752ZM14.392,8.5a.816.816,0,0,1,0-1.632h1.537Q15.9,7.692,15.8,8.5Zm2.647-2.168s0-.009,0-.013,0-.006,0-.009c0-.019,0-.038,0-.057V5.513h3.3v.743c0,.019,0,.038,0,.057,0,0,0,.006,0,.009s0,.009,0,.013a18.85,18.85,0,0,0,.619,4.715H16.42A18.85,18.85,0,0,0,17.039,6.336ZM10.614,3.311l.119,1.1H6.862l.119-1.1ZM7.149,6.256V5.513h3.3v.743a18.854,18.854,0,0,0,.619,4.795H6.53A18.854,18.854,0,0,0,7.149,6.256ZM6.861,1.6h3.874v.613H6.861ZM4.426,4.448a.037.037,0,0,1,.037-.037h1.3a1.088,1.088,0,0,0,.277.74l.01.01V6.256a17.756,17.756,0,0,1-.659,4.795H4.426Zm0,0" transform="translate(0 -0.5)" fill="#f40000"/>
      </g>
      <text id="_3-6_PACKS" data-name="3-6
PACKS" transform="translate(18.463 19.306)" fill="#f40000" font-size="5" font-family="Roboto-Bold, Roboto" font-weight="700" letter-spacing="0.05em"><tspan x="-4.088" y="0">3-6</tspan><tspan font-size="4"><tspan x="-6.649" y="5">PACKS</tspan></tspan></text>
    </g>
  </g>
</svg>
