<svg xmlns="http://www.w3.org/2000/svg" width="42.178" height="42.178" viewBox="0 0 42.178 42.178"><defs><style>.a{fill:#f40000;}</style></defs><g transform="translate(-2 -2)"><path class="a" d="M44.108,43.913,39.96,35.626V16.109A2.109,2.109,0,0,0,37.851,14h-.7v1.406h.7a.7.7,0,0,1,.7.7v18.98H7.624V16.109a.7.7,0,0,1,.7-.7h.7V14h-.7a2.109,2.109,0,0,0-2.109,2.109V35.626L2.074,43.913A.7.7,0,0,0,2,44.228v2.109a1.406,1.406,0,0,0,1.406,1.406H42.772a1.406,1.406,0,0,0,1.406-1.406V44.228A.7.7,0,0,0,44.108,43.913Zm-5.285-7.418,3.515,7.03H29.147L27.939,41.1a.7.7,0,0,0-.633-.389H18.871a.7.7,0,0,0-.629.389l-1.211,2.423H3.84l3.515-7.03Zm-11.247,7.03H18.6l.7-1.406h7.567ZM3.406,46.336V44.931H42.772v1.406Z" transform="translate(0 -3.564)"/><path class="a" d="M10,52h1.406v1.406H10Z" transform="translate(-2.376 -14.852)"/><path class="a" d="M14,52h1.406v1.406H14Z" transform="translate(-3.564 -14.852)"/><path class="a" d="M48,52h1.406v1.406H48Z" transform="translate(-13.664 -14.852)"/><path class="a" d="M52,52h1.406v1.406H52Z" transform="translate(-14.852 -14.852)"/><path class="a" d="M15,48h1.406v1.406H15Z" transform="translate(-3.861 -13.664)"/><path class="a" d="M11,48h1.406v1.406H11Z" transform="translate(-2.673 -13.664)"/><path class="a" d="M19,48h1.406v1.406H19Z" transform="translate(-5.05 -13.664)"/><path class="a" d="M23,48h1.406v1.406H23Z" transform="translate(-6.238 -13.664)"/><path class="a" d="M27,48h1.406v1.406H27Z" transform="translate(-7.426 -13.664)"/><path class="a" d="M31,48h1.406v1.406H31Z" transform="translate(-8.614 -13.664)"/><path class="a" d="M35,48h1.406v1.406H35Z" transform="translate(-9.802 -13.664)"/><path class="a" d="M39,48h1.406v1.406H39Z" transform="translate(-10.99 -13.664)"/><path class="a" d="M43,48h1.406v1.406H43Z" transform="translate(-12.178 -13.664)"/><path class="a" d="M47,48h1.406v1.406H47Z" transform="translate(-13.367 -13.664)"/><path class="a" d="M51,48h1.406v1.406H51Z" transform="translate(-14.555 -13.664)"/><path class="a" d="M18,52h2.812v1.406H18Z" transform="translate(-4.753 -14.852)"/><path class="a" d="M42,52h2.812v1.406H42Z" transform="translate(-11.881 -14.852)"/><path class="a" d="M16.109,28.713H37.2A2.109,2.109,0,0,0,39.307,26.6V4.109A2.109,2.109,0,0,0,37.2,2H16.109A2.109,2.109,0,0,0,14,4.109V26.6A2.109,2.109,0,0,0,16.109,28.713ZM37.2,27.307H16.109a.7.7,0,0,1-.7-.7V9.03H37.9V26.6A.7.7,0,0,1,37.2,27.307ZM16.109,3.406H37.2a.7.7,0,0,1,.7.7V7.624H15.406V4.109A.7.7,0,0,1,16.109,3.406Z" transform="translate(-3.564 0)"/><path class="a" d="M18,6h1.406V7.406H18Z" transform="translate(-4.753 -1.188)"/><path class="a" d="M22,6h1.406V7.406H22Z" transform="translate(-5.941 -1.188)"/><path class="a" d="M26,6h1.406V7.406H26Z" transform="translate(-7.129 -1.188)"/><path class="a" d="M35.356,20.752H33.4l.534-2.671L32.558,17.8l-.59,2.952H26.091L25.5,17.8l-1.378.276.534,2.671H22.7a.7.7,0,0,0-.689.844l1.181,5.9a2.114,2.114,0,0,0,2.067,1.7H32.8a2.114,2.114,0,0,0,2.067-1.7l1.181-5.9a.7.7,0,0,0-.689-.844ZM33.487,27.22a.7.7,0,0,1-.69.562H25.262a.7.7,0,0,1-.69-.562l-1.012-5.061H34.5Z" transform="translate(-5.941 -4.693)"/><path class="a" d="M31,26h1.406v2.812H31Z" transform="translate(-8.614 -7.129)"/><path class="a" d="M35,26h1.406v2.812H35Z" transform="translate(-9.802 -7.129)"/><path class="a" d="M27,26h1.406v2.812H27Z" transform="translate(-7.426 -7.129)"/></g></svg>