<svg xmlns="http://www.w3.org/2000/svg" width="25.974" height="30.162" viewBox="0 0 25.974 30.162"><defs><style>.a{fill:#f40000;}</style></defs><g transform="translate(0 0)"><g transform="translate(0 0)"><g transform="translate(7.961 15.819)"><path class="a" d="M173.147,269.689a.608.608,0,0,1-.566-.39.586.586,0,0,1,.169-.643.619.619,0,0,1,.715-.057.588.588,0,0,1,.274.611.606.606,0,0,1-.591.479Z" transform="translate(-172.546 -268.512)"/></g><path class="a" d="M66.17,29.157l-1.581-1.545a1.045,1.045,0,0,1,0-1.5,2.205,2.205,0,0,0,0-3.17l-.823-.8.7-.685a3.615,3.615,0,0,0,0-5.195l-1.7-1.662a3.7,3.7,0,0,0-5.146,0l-1.184,1.158c-4.06-1.258-5.7-2.86-6.986-6.828l1.184-1.157a3.5,3.5,0,0,0,0-5.03l-1.7-1.662a3.823,3.823,0,0,0-5.314,0l-1.639,1.6c-1.246,1.218-2.338,2.888-.989,6.042a8.992,8.992,0,0,0,1.2,1.805l.03.035,1.235,1.326.019.02,3.1,3.028a.612.612,0,0,0,.852,0,.58.58,0,0,0,0-.833l-3.086-3.018-1.21-1.3A7.737,7.737,0,0,1,42.1,8.264c-1.125-2.63-.257-3.79.729-4.754l1.639-1.6a2.6,2.6,0,0,1,3.61,0l1.7,1.662a2.341,2.341,0,0,1,0,3.364L48.341,8.342a.58.58,0,0,0-.151.587c1.467,4.738,3.392,6.62,8.24,8.054a.612.612,0,0,0,.6-.147l1.441-1.409a2.477,2.477,0,0,1,3.442,0l1.7,1.662a2.455,2.455,0,0,1,0,3.528l-1.639,1.6c-.986.964-2.174,1.813-4.865.713a7.958,7.958,0,0,1-1.554-1l-1.329-1.182-2.95-2.878a.612.612,0,0,0-.852,0,.58.58,0,0,0,0,.833l2.96,2.888.02.019,1.357,1.207.036.03a9.248,9.248,0,0,0,1.847,1.175,7.185,7.185,0,0,0,2.709.606,4.774,4.774,0,0,0,3.472-1.573l.086-.084.824.805a1.045,1.045,0,0,1,0,1.5,2.205,2.205,0,0,0,0,3.17l1.581,1.545a.612.612,0,0,0,.852,0A.58.58,0,0,0,66.17,29.157Z" transform="translate(-40.373 -0.001)"/><g transform="translate(13.378 2.94)"><g transform="translate(0)"><path class="a" d="M270.377,58.212a.6.6,0,0,1-.6-.589,6.623,6.623,0,0,0-6.691-6.537.589.589,0,1,1,0-1.178,7.816,7.816,0,0,1,7.9,7.715A.6.6,0,0,1,270.377,58.212Z" transform="translate(-262.481 -49.908)"/></g><g transform="translate(0 2.842)"><path class="a" d="M267.467,103.609a.6.6,0,0,1-.6-.589,3.744,3.744,0,0,0-3.783-3.7.589.589,0,1,1,0-1.178,4.937,4.937,0,0,1,4.987,4.873A.6.6,0,0,1,267.467,103.609Z" transform="translate(-262.48 -98.147)"/></g><g transform="translate(0 5.684)"><path class="a" d="M264.558,149.007a.6.6,0,0,1-.6-.589.865.865,0,0,0-.874-.853.589.589,0,1,1,0-1.178,2.058,2.058,0,0,1,2.078,2.031A.6.6,0,0,1,264.558,149.007Z" transform="translate(-262.48 -146.387)"/></g></g></g></g></svg>