<svg xmlns="http://www.w3.org/2000/svg" width="34.383" height="26.255" viewBox="0 0 34.383 26.255"><defs><style>.a{fill:#f40000;}</style></defs><path class="a" d="M36.079,28.587,28.993,21.5a1.7,1.7,0,0,0-1.211-.5h-9.8v1.142h2.854V30.7h1.142V22.142h5.805a.571.571,0,0,1,.4.167l.974.974H26.543A1.142,1.142,0,0,0,25.4,24.425v5.137A1.142,1.142,0,0,0,26.543,30.7H35.1v4.566a.571.571,0,0,1-.571.571H33.347a3.99,3.99,0,0,0-7.9,0H17.365a3.99,3.99,0,0,0-7.9,0H8.278a.571.571,0,0,1-.571-.571V30.132H6.566v5.137a1.712,1.712,0,0,0,1.712,1.712H9.466a3.983,3.983,0,0,0,1.159,2.283H2v1.142H29.4a4,4,0,0,0,3.95-3.425h1.187a1.712,1.712,0,0,0,1.712-1.712V28.991a.571.571,0,0,0-.167-.4ZM10.562,36.411a2.854,2.854,0,1,1,2.854,2.854A2.854,2.854,0,0,1,10.562,36.411Zm5.644,2.854a3.983,3.983,0,0,0,1.159-2.283h8.082a3.983,3.983,0,0,0,1.159,2.283Zm13.191,0a2.854,2.854,0,1,1,2.854-2.854A2.854,2.854,0,0,1,29.4,39.265Zm-2.854-9.7V24.425H30.3l4.8,4.8v.334Z" transform="translate(-1.863 -14.151)"/><rect class="a" width="1.808" height="1.808" transform="translate(10.85 21.579)"/><rect class="a" width="0.904" height="1.808" transform="translate(27.124 21.579)"/><rect class="a" width="2.712" height="0.904" transform="translate(0 19.771)"/><rect class="a" width="1.808" height="0.904" transform="translate(0.904 17.962)"/><rect class="a" width="0.904" height="0.904" transform="translate(1.808 15.25)"/><path class="a" d="M9.42,23.84A7.42,7.42,0,1,0,2,16.42a7.42,7.42,0,0,0,7.42,7.42Zm0-13.7A6.278,6.278,0,1,1,3.142,16.42,6.278,6.278,0,0,1,9.42,10.142Z" transform="translate(-1.863 -9)"/><path class="a" d="M12,23.274a.571.571,0,0,0,.4-.167c.368-.368,3.592-3.663,3.592-6.111A4,4,0,0,0,8,17c0,2.449,3.224,5.744,3.592,6.111A.571.571,0,0,0,12,23.274Zm0-9.132A2.857,2.857,0,0,1,14.849,17c0,1.465-1.8,3.728-2.854,4.881C10.938,20.723,9.142,18.46,9.142,17A2.857,2.857,0,0,1,12,14.142Z" transform="translate(-4.439 -10.717)"/><path class="a" d="M15.425,18.712a1.712,1.712,0,1,0-1.712,1.712A1.712,1.712,0,0,0,15.425,18.712Zm-2.283,0a.571.571,0,1,1,.571.571A.571.571,0,0,1,13.142,18.712Z" transform="translate(-6.156 -12.434)"/><rect class="a" width="2.712" height="0.904" transform="translate(21.699 17.962)"/></svg>