<svg xmlns="http://www.w3.org/2000/svg" width="33.066" height="28.259" viewBox="0 0 33.066 28.259"><defs><style>.a{fill:#f40000;}</style></defs><g transform="translate(6.362 18.184)"><g transform="translate(19.375)"><path class="a" d="M398.509,318.786h.969v.969h-.969Z" transform="translate(-398.509 -318.786)"/></g><path class="a" d="M98.509,318.786h.969v.969h-.969Z" transform="translate(-98.509 -318.786)"/></g><path class="a" d="M169.5,245.372a5.586,5.586,0,1,0,5.586-5.586A5.593,5.593,0,0,0,169.5,245.372Zm10.2,0a4.618,4.618,0,1,1-4.618-4.618A4.623,4.623,0,0,1,179.7,245.372Z" transform="translate(-158.553 -226.704)"/><path class="a" d="M226.73,267.764v.351a1.991,1.991,0,0,0-1.5,1.927v.243a1.745,1.745,0,0,0,1.5,1.725v1.929a1.02,1.02,0,0,1-.534-.913h-.969a1.991,1.991,0,0,0,1.5,1.945v.351h.969v-.351a1.991,1.991,0,0,0,1.5-1.927V272.8a1.745,1.745,0,0,0-1.5-1.725v-1.929a1.02,1.02,0,0,1,.534.913h.969a1.991,1.991,0,0,0-1.5-1.945v-.351h-.969Zm0,3.257a.775.775,0,0,1-.534-.735v-.243a1.02,1.02,0,0,1,.534-.9Zm1.5,1.781v.243a1.02,1.02,0,0,1-.534.9v-1.874A.774.774,0,0,1,228.233,272.8Z" transform="translate(-210.681 -252.875)"/><path class="a" d="M0,177.785v19.181H5.392V196H.969V178.754H32.1V196H6.361v.969H33.066V177.785Z" transform="translate(0 -168.707)"/><path class="a" d="M32.33,223.091H56.861l-.051-.531a1.907,1.907,0,0,1,1.9-2.085h.484V210.4h-.484A1.907,1.907,0,0,1,56.8,208.5c0-.113,0-.129.06-.71H51.843v.969h4a2.88,2.88,0,0,0,2.378,2.575v8.219a2.88,2.88,0,0,0-2.378,2.575h-22.5a2.88,2.88,0,0,0-2.378-2.575v-8.219a2.88,2.88,0,0,0,2.378-2.575H50.874v-.969H32.33l.051.531a1.907,1.907,0,0,1-1.9,2.085H30v10.075h.484a1.907,1.907,0,0,1,1.905,1.905C32.39,222.494,32.386,222.509,32.33,223.091Z" transform="translate(-28.063 -196.769)"/><path class="a" d="M287.185,97.416l-.229-.482-5.586,3.353.5.831,4.714-2.83a2.875,2.875,0,0,0,3.364.985l1.008,1.679.831-.5L290.3,97.978l-.415.249A1.905,1.905,0,0,1,287.185,97.416Z" transform="translate(-263.199 -93.077)"/><path class="a" d="M239.509,44.591l-4.427-7.376-12.012,7.21.5.831,11.182-6.711,3.929,6.545Z" transform="translate(-208.664 -37.215)"/></svg>