<svg xmlns="http://www.w3.org/2000/svg" xmlns:xlink="http://www.w3.org/1999/xlink" width="127.198" height="41.608" viewBox="0 0 127.198 41.608"><defs><style>.a{fill:none;}.b{fill:#161615;}.c{clip-path:url(#a);}.d{fill:url(#b);}.e{fill:url(#c);}.f{fill:url(#d);}.g{fill:url(#e);}.h{fill:#f9f9f9;}.i{fill:#fbfcfc;}</style><clipPath id="a"><path class="a" d="M153.031,339.914,147.3,336.6l-11.063-6.388c-.614-.355-1.226-.14-1.226.6v26.025c0,.556.437.8.971.487l11.318-6.535,5.735-3.311,5.513-3.182c.647-.374.585-.886.039-1.18S153.031,339.914,153.031,339.914Z" transform="translate(-135.006 -330.047)"/></clipPath><linearGradient id="b" x1="0.5" x2="0.5" y2="1" gradientUnits="objectBoundingBox"><stop offset="0" stop-color="#0067a2"/><stop offset="0.403" stop-color="#3d91a8"/><stop offset="0.805" stop-color="#74b7ae"/><stop offset="1" stop-color="#8ac6b1"/></linearGradient><linearGradient id="c" y1="0.5" x2="1" y2="0.5" gradientUnits="objectBoundingBox"><stop offset="0" stop-color="#50b09b"/><stop offset="1" stop-color="#e9e486"/></linearGradient><linearGradient id="d" x1="0.5" x2="0.5" y2="1" gradientUnits="objectBoundingBox"><stop offset="0" stop-color="#dc1b24"/><stop offset="0.228" stop-color="#c1203b"/><stop offset="0.748" stop-color="#8a2b6c"/><stop offset="1" stop-color="#753080"/></linearGradient><linearGradient id="e" x1="0.5" x2="0.5" y2="1" gradientUnits="objectBoundingBox"><stop offset="0" stop-color="#eb7165"/><stop offset="0.003" stop-color="#eb7164"/><stop offset="0.675" stop-color="#f9a85e"/><stop offset="1" stop-color="#ffbe5c"/></linearGradient></defs><path class="b" d="M223.839,332.059a5.623,5.623,0,0,1-5.622,5.624H102.264a5.624,5.624,0,0,1-5.623-5.624V301.7a5.624,5.624,0,0,1,5.623-5.623H218.217a5.623,5.623,0,0,1,5.622,5.623Z" transform="translate(-96.641 -296.074)"/><g transform="translate(9.541 8.449)"><g class="c" transform="translate(0 0)"><path class="d" d="M135.006,328.285v28.177l14.208-14.088Z" transform="translate(-135.006 -328.723)"/><path class="e" d="M153.031,338.28l-5.735-3.311-12.289-7.1v.1l14.208,14.089Z" transform="translate(-135.006 -328.414)"/><path class="f" d="M135.006,399.026v.1l12.289-7.1,5.735-3.311-3.816-3.784Z" transform="translate(-135.006 -371.287)"/><path class="g" d="M195.956,369.721,192.14,373.5l3.816,3.784,6.555-3.784Z" transform="translate(-177.931 -359.855)"/></g></g><g transform="translate(95.179 15.824)"><path class="h" d="M483.181,381.425a3.544,3.544,0,0,1-1.462-.3,2.755,2.755,0,0,1-1.111-.908h-.09a11.017,11.017,0,0,1,.09,1.361v3.372h-1.24V373.081h1.009l.172,1.122h.06a2.885,2.885,0,0,1,1.115-.972,3.385,3.385,0,0,1,1.458-.3,3.028,3.028,0,0,1,2.516,1.114,5.933,5.933,0,0,1-.014,6.262A3.036,3.036,0,0,1,483.181,381.425Zm-.18-7.439a2.2,2.2,0,0,0-1.816.7,3.58,3.58,0,0,0-.576,2.213v.277a4.1,4.1,0,0,0,.576,2.471,2.19,2.19,0,0,0,1.846.744,1.921,1.921,0,0,0,1.664-.859,4.08,4.08,0,0,0,.6-2.37,3.927,3.927,0,0,0-.6-2.351A1.981,1.981,0,0,0,483,373.986Z" transform="translate(-479.368 -369.642)"/><path class="h" d="M516.185,371.337h-1.241V359.7h1.241Z" transform="translate(-506.097 -359.703)"/><path class="h" d="M531.55,381.321l-.247-1.166h-.06a3.438,3.438,0,0,1-1.223,1.043,3.713,3.713,0,0,1-1.521.273,2.738,2.738,0,0,1-1.91-.628,2.29,2.29,0,0,1-.692-1.787q0-2.482,3.97-2.6l1.391-.045V375.9a2.075,2.075,0,0,0-.415-1.424,1.705,1.705,0,0,0-1.327-.46,5.4,5.4,0,0,0-2.318.628l-.382-.95a5.832,5.832,0,0,1,1.328-.516,5.744,5.744,0,0,1,1.447-.187,3.122,3.122,0,0,1,2.172.65,2.717,2.717,0,0,1,.706,2.086v5.592Zm-2.8-.874a2.521,2.521,0,0,0,1.821-.635,2.353,2.353,0,0,0,.662-1.78v-.74l-1.242.052a4.515,4.515,0,0,0-2.135.461,1.387,1.387,0,0,0-.654,1.267,1.277,1.277,0,0,0,.408,1.024A1.689,1.689,0,0,0,528.746,380.446Z" transform="translate(-514.326 -369.687)"/><path class="h" d="M555.222,373.533h1.33l1.795,4.673a17.862,17.862,0,0,1,.733,2.311h.06q.1-.382.407-1.305t2.03-5.678h1.331l-3.522,9.331a4.655,4.655,0,0,1-1.223,1.963,2.6,2.6,0,0,1-1.715.579,5.019,5.019,0,0,1-1.122-.127v-.994a4.334,4.334,0,0,0,.92.09,1.9,1.9,0,0,0,1.824-1.436l.456-1.166Z" transform="translate(-536.358 -370.094)"/></g><g transform="translate(38.6 14.907)"><path class="h" d="M382.936,374.73a2.792,2.792,0,0,1-.223,4.747,1.206,1.206,0,0,0-.48.841.94.94,0,0,0,.446.737l.617.479a2.984,2.984,0,0,1,1.439,2.4c0,1.611-1.56,3.239-4.507,3.239-2.486,0-3.685-1.182-3.685-2.452a2.466,2.466,0,0,1,1.32-2.091,7.387,7.387,0,0,1,3.273-.789,1.793,1.793,0,0,1-.515-1.164,1.547,1.547,0,0,1,.172-.669c-.189.018-.378.035-.549.035a2.71,2.71,0,0,1-2.845-2.69,3.083,3.083,0,0,1,1.1-2.3,4.674,4.674,0,0,1,3.069-.943h3.53l-1.1.617Zm-1.217,7.61a2.662,2.662,0,0,0-.394-.018,6.857,6.857,0,0,0-1.8.276,1.925,1.925,0,0,0-1.474,1.765c0,1.216,1.183,2.092,3.017,2.092,1.645,0,2.519-.79,2.519-1.852C383.588,383.727,383.022,383.266,381.719,382.341Zm.5-3.257a1.734,1.734,0,0,0,.427-1.252c0-1.234-.737-3.153-2.159-3.153a1.6,1.6,0,0,0-1.2.566,1.98,1.98,0,0,0-.377,1.268c0,1.148.668,3.051,2.143,3.051A1.755,1.755,0,0,0,382.216,379.084Z" transform="translate(-345.535 -369.613)"/><path class="h" d="M346.248,381.331a4.038,4.038,0,0,1-4.175-4.039,4.24,4.24,0,0,1,4.433-4.157,4,4,0,0,1,4.089,4.038A4.181,4.181,0,0,1,346.248,381.331Zm2.139-1.386a3.1,3.1,0,0,0,.514-1.9c0-1.506-.718-4.381-2.841-4.381a2.384,2.384,0,0,0-1.54.583,2.589,2.589,0,0,0-.788,2.088c0,1.693.839,4.481,2.91,4.481A2.185,2.185,0,0,0,348.387,379.945Z" transform="translate(-319.637 -368.879)"/><path class="h" d="M308.951,381.331a4.038,4.038,0,0,1-4.175-4.039,4.24,4.24,0,0,1,4.433-4.157,4,4,0,0,1,4.089,4.038A4.181,4.181,0,0,1,308.951,381.331Zm2.139-1.386a3.1,3.1,0,0,0,.514-1.9c0-1.506-.719-4.381-2.841-4.381a2.384,2.384,0,0,0-1.54.583,2.589,2.589,0,0,0-.787,2.088c0,1.693.838,4.481,2.909,4.481A2.187,2.187,0,0,0,311.091,379.945Z" transform="translate(-291.616 -368.879)"/><path class="h" d="M263.709,369.362l-2.46.568a18.23,18.23,0,0,1-2.838.292c-4.749,0-6.555-3.493-6.555-6.228,0-3.337,2.563-6.433,6.951-6.433a9.9,9.9,0,0,1,2.632.361,6.707,6.707,0,0,1,2.271,1.067l-1.428,1.359-.6.137.43-.688a4.917,4.917,0,0,0-3.681-1.616,4.752,4.752,0,0,0-4.766,5.076,6.084,6.084,0,0,0,6.09,6.279,5.124,5.124,0,0,0,2.185-.43v-2.769l-2.6.138,1.375-.741h3.647l-.447.43a.4.4,0,0,0-.173.275c-.018.155-.034.655-.034.826Z" transform="translate(-251.856 -357.177)"/><path class="h" d="M413.075,367.708c-.568-.052-.687-.154-.687-.826v-9.737c0-.037.006-.075.009-.111.069-.6.241-.705.775-1.015h-2.461l-1.291.619h1.315v10.623c0,.343-.068.4-.464.911h3.045l.636-.378C413.661,367.759,413.368,367.743,413.075,367.708Z" transform="translate(-370.237 -356.019)"/><path class="h" d="M433.426,380.742c-.187.1-.375.223-.563.308a3.979,3.979,0,0,1-1.659.325,3.651,3.651,0,0,1-2.273-.667,4.422,4.422,0,0,1-1.742-3.605,3.872,3.872,0,0,1,3.913-3.946,3.321,3.321,0,0,1,1.761.479,2.829,2.829,0,0,1,1.194,1.691l-4.014,1.624-1.316.1c.427,2.17,1.9,3.433,3.519,3.433a4.415,4.415,0,0,0,2.084-.6Zm-1.605-5.092c.324-.119.495-.222.495-.461a1.7,1.7,0,0,0-1.692-1.469,2.1,2.1,0,0,0-1.965,2.375c0,.29.034.6.052.906Z" transform="translate(-383.587 -368.894)"/><g transform="translate(50.978 4.262)"><path class="h" d="M457.356,373.273V374.4h-.137v-1.127h-.373v-.117h.883v.117Z" transform="translate(-456.846 -373.156)"/><path class="h" d="M462.238,374.4v-1.138h-.006l-.347,1.138h-.107l-.35-1.138h0V374.4H461.3v-1.244h.213l.317,1.006h0l.312-1.006h.216V374.4Z" transform="translate(-460.191 -373.156)"/></g></g><g transform="translate(38.629 8.382)"><path class="i" d="M255.361,333.581h-.855a5.673,5.673,0,0,0-.243-1h-1.234a5.164,5.164,0,0,0-.251,1h-.8q0-.1.624-1.71a13.445,13.445,0,0,0,.624-1.768h1.01a14.763,14.763,0,0,0,.565,1.743A15.262,15.262,0,0,1,255.361,333.581Zm-1.234-1.509a15.117,15.117,0,0,1-.457-1.491h-.043q0,.1-.473,1.491Z" transform="translate(-251.974 -330.023)"/><path class="i" d="M270.787,333.581h-.66a6.505,6.505,0,0,0-.735-1.157,6.372,6.372,0,0,1-.876-1.509h-.043a9.417,9.417,0,0,1,.067,1.058q0,.66.037,1.608h-.657q.04-.828.04-1.819,0-.975-.04-1.659h.794a5.026,5.026,0,0,0,.66,1.13,6.65,6.65,0,0,1,.807,1.424h.04a10.137,10.137,0,0,1-.064-1.069q0-.724-.038-1.485h.668q-.038.663-.038,1.659T270.787,333.581Z" transform="translate(-263.954 -330.023)"/><path class="i" d="M286.139,331.673a1.97,1.97,0,0,1-.486,1.325,1.7,1.7,0,0,1-1.362.567q-.4,0-1.09-.032.035-.807.035-1.819,0-.972-.035-1.659h.468q.115,0,.342-.008t.3-.008a1.8,1.8,0,0,1,1.4.481A1.662,1.662,0,0,1,286.139,331.673Zm-.729.115a1.287,1.287,0,0,0-.3-.864,1.134,1.134,0,0,0-.914-.351,2.823,2.823,0,0,0-.315.024q.027.535.027,1.117,0,.639.027,1.266a1.768,1.768,0,0,0,.347.035,1.009,1.009,0,0,0,.851-.357A1.376,1.376,0,0,0,285.409,331.788Z" transform="translate(-275.435 -329.974)"/><path class="i" d="M300.867,333.532h-.791a5.246,5.246,0,0,0-.475-1.167.623.623,0,0,0-.534-.222l-.3,0q0,.687.024,1.386h-.743q.035-.807.035-1.819,0-.972-.035-1.659h.462q.08,0,.335-.008t.472-.008q1.226,0,1.226.839a.941.941,0,0,1-.7.927v.04a.835.835,0,0,1,.473.421A9.3,9.3,0,0,1,300.867,333.532Zm-1-2.458q0-.532-.684-.532a2.33,2.33,0,0,0-.444.038q.029.414.03,1.079.147.005.248.005Q299.865,331.665,299.865,331.074Z" transform="translate(-286.592 -329.974)"/><path class="i" d="M314.5,331.535a1.919,1.919,0,0,1-.5,1.36,1.63,1.63,0,0,1-1.242.54,1.569,1.569,0,0,1-1.181-.5,1.744,1.744,0,0,1-.475-1.259,1.917,1.917,0,0,1,.5-1.36,1.629,1.629,0,0,1,1.242-.54,1.571,1.571,0,0,1,1.181.494A1.744,1.744,0,0,1,314.5,331.535Zm-.737.077a1.379,1.379,0,0,0-.286-.905.88.88,0,0,0-.705-.347.815.815,0,0,0-.663.35,1.4,1.4,0,0,0-.273.884,1.376,1.376,0,0,0,.287.9.88.88,0,0,0,.7.349.814.814,0,0,0,.663-.351A1.4,1.4,0,0,0,313.76,331.613Z" transform="translate(-296.394 -329.78)"/><path class="i" d="M328.561,333.581H327.8q.035-.828.035-1.819,0-.975-.035-1.659h.756q-.035.673-.035,1.659Q328.526,332.769,328.561,333.581Z" transform="translate(-308.947 -330.023)"/><path class="i" d="M337.537,331.673a1.97,1.97,0,0,1-.486,1.325,1.7,1.7,0,0,1-1.362.567q-.4,0-1.09-.032.035-.807.035-1.819,0-.972-.035-1.659h.468q.115,0,.342-.008c.151-.005.25-.008.3-.008a1.8,1.8,0,0,1,1.4.481A1.663,1.663,0,0,1,337.537,331.673Zm-.729.115a1.288,1.288,0,0,0-.3-.864,1.134,1.134,0,0,0-.914-.351,2.819,2.819,0,0,0-.315.024q.027.535.027,1.117,0,.639.027,1.266a1.768,1.768,0,0,0,.347.035,1.009,1.009,0,0,0,.851-.357A1.376,1.376,0,0,0,336.808,331.788Z" transform="translate(-314.051 -329.974)"/><path class="i" d="M356.837,333.581h-.855a5.636,5.636,0,0,0-.243-1H354.5a5.155,5.155,0,0,0-.251,1h-.8q0-.1.624-1.71a13.416,13.416,0,0,0,.624-1.768h1.01a14.739,14.739,0,0,0,.565,1.743A15.326,15.326,0,0,1,356.837,333.581Zm-1.234-1.509a15.163,15.163,0,0,1-.457-1.491H355.1q0,.1-.473,1.491Z" transform="translate(-328.214 -330.023)"/><path class="i" d="M371.934,330.965a1.042,1.042,0,0,1-.475.943,2.109,2.109,0,0,1-1.163.3q-.126,0-.179-.005,0,.5.029,1.325H369.4q.035-.772.035-1.819,0-.962-.035-1.659h.465q.1,0,.379-.008t.486-.008a1.529,1.529,0,0,1,.857.23A.777.777,0,0,1,371.934,330.965Zm-.689.147q0-.571-.759-.571a2.135,2.135,0,0,0-.4.04q.029.5.029,1.143c.044,0,.1.005.155.005Q371.245,331.729,371.245,331.112Z" transform="translate(-340.195 -329.974)"/><path class="i" d="M384.818,330.965a1.042,1.042,0,0,1-.474.943,2.111,2.111,0,0,1-1.164.3c-.084,0-.143,0-.179-.005q0,.5.029,1.325h-.751q.035-.772.035-1.819,0-.962-.035-1.659h.465q.1,0,.379-.008t.486-.008a1.528,1.528,0,0,1,.857.23A.777.777,0,0,1,384.818,330.965Zm-.689.147q0-.571-.759-.571a2.135,2.135,0,0,0-.4.04q.029.5.029,1.143c.045,0,.1.005.155.005Q384.129,331.729,384.129,331.112Z" transform="translate(-349.875 -329.974)"/><path class="i" d="M403.276,331.535a1.918,1.918,0,0,1-.5,1.36,1.629,1.629,0,0,1-1.242.54,1.569,1.569,0,0,1-1.181-.5,1.745,1.745,0,0,1-.475-1.259,1.918,1.918,0,0,1,.5-1.36,1.63,1.63,0,0,1,1.242-.54,1.572,1.572,0,0,1,1.181.494A1.745,1.745,0,0,1,403.276,331.535Zm-.737.077a1.377,1.377,0,0,0-.286-.905.879.879,0,0,0-.7-.347.815.815,0,0,0-.663.35,1.4,1.4,0,0,0-.272.884,1.376,1.376,0,0,0,.287.9.879.879,0,0,0,.7.349.813.813,0,0,0,.663-.351A1.4,1.4,0,0,0,402.538,331.613Z" transform="translate(-363.094 -329.78)"/><path class="i" d="M419.45,333.581h-.66a6.5,6.5,0,0,0-.735-1.157,6.374,6.374,0,0,1-.876-1.509h-.043a9.471,9.471,0,0,1,.067,1.058q0,.66.038,1.608h-.657q.04-.828.04-1.819,0-.975-.04-1.659h.793a5.034,5.034,0,0,0,.66,1.13,6.651,6.651,0,0,1,.807,1.424h.04a10.077,10.077,0,0,1-.064-1.069q0-.724-.037-1.485h.668q-.037.663-.037,1.659T419.45,333.581Z" transform="translate(-375.648 -330.023)"/></g></svg>