<svg xmlns="http://www.w3.org/2000/svg" width="209.101" height="238.458" viewBox="0 0 209.101 238.458"><defs><style>.a{fill:#424242;}.b{fill:#e0e0e0;}.c{fill:#616161;}.d{fill:#bdbdbd;}.e{fill:#eee;}.f{fill:#f40000;}.g{fill:#de0b1c;}.h{fill:#fff;}.i,.j{fill:rgba(75,75,75,0.62);}.i{opacity:0.294;}.j{opacity:0.569;}.k{fill:#d8d4d4;}</style></defs><g transform="translate(-15.561 -6.873)"><rect class="a" width="123.339" height="219.372" rx="17.06" transform="translate(45.755 29.774) rotate(-10.7)"/><path class="b" d="M167.344,24.145l4.86,25.728L62.578,70.575,57.746,44.856a9.839,9.839,0,0,1,7.829-11.481l90.279-17.06a9.849,9.849,0,0,1,11.49,7.829Z" transform="translate(-3.27 -0.722)"/><path class="a" d="M83.1,30.7l3.6,6.87a3.394,3.394,0,0,0,3.689,1.761l48.4-9.148a3.384,3.384,0,0,0,2.766-2.96l.839-7.709-27.111,2.435Z" transform="translate(-5.257 -0.984)"/><path class="c" d="M124.621,27.668l-19.07,3.6a1.133,1.133,0,1,0,.387,2.232l19.07-3.6a1.125,1.125,0,0,0,.922-1.309,1.107,1.107,0,0,0-1.309-.922Z" transform="translate(-6.932 -1.617)"/><path class="c" d="M101.931,33.335a1.669,1.669,0,1,1-.7-1.075,1.669,1.669,0,0,1,.7,1.075Z" transform="translate(-6.465 -1.953)"/><path class="c" d="M133.459,27.385a1.669,1.669,0,1,1-.7-1.075,1.678,1.678,0,0,1,.7,1.075Z" transform="translate(-8.918 -1.49)"/><path class="c" d="M171.407,44.24l-7.516,1.42a.636.636,0,1,0,.24,1.245l7.506-1.42a.636.636,0,0,0-.231-1.245Z" transform="translate(-11.502 -2.908)"/><path class="c" d="M171.852,46.6l-7.506,1.42a.638.638,0,0,0,.231,1.254l7.516-1.383a.638.638,0,1,0-.24-1.254Z" transform="translate(-11.541 -3.092)"/><path class="c" d="M172.322,49l-7.516,1.42a.638.638,0,1,0,.24,1.254l7.516-1.42a.638.638,0,1,0-.24-1.254Z" transform="translate(-11.577 -3.278)"/><path class="c" d="M69.839,68.875,65.8,67.215,68.954,64.2l.563.59-2.232,2.149,2.868,1.18Z" transform="translate(-3.911 -4.462)"/><path class="d" d="M165.438,21.348a1.614,1.614,0,1,0,.252-1.214,1.614,1.614,0,0,0-.252,1.214Z" transform="translate(-11.664 -0.977)"/><path class="d" d="M159.568,22.452a1.623,1.623,0,1,0,1.291-1.844A1.623,1.623,0,0,0,159.568,22.452Z" transform="translate(-11.208 -1.067)"/><path class="d" d="M70.2,37.608l-5.413,1.024a1.614,1.614,0,1,0,.6,3.172L70.8,40.78a1.614,1.614,0,0,0-.6-3.172Z" transform="translate(-3.73 -2.39)"/><path class="e" d="M0,0H111.581V160.216a11.416,11.416,0,0,1-11.416,11.416H11.416A11.416,11.416,0,0,1,0,160.216Z" transform="translate(59.339 69.854) rotate(-10.7)"/><path class="b" d="M178.394,234.137l-50.1,9.471a1.743,1.743,0,1,0,.646,3.421l50.1-9.461a1.745,1.745,0,0,0-.646-3.43Z" transform="translate(-8.658 -17.688)"/><path class="f" d="M148.364,203.931c5.468-1.042,11.269-3.034,12.91-4.389,2.683-2.269.553-8.742-.775-11.2a31.7,31.7,0,0,1-4.039-11.112c-1.309-6.981-1.577-20.924-1.641-21.781-.092-1.429,0-2.886-.83-3.062.8-.867-3.2-17.945-4.952-18.3.821-.157.166-2.029-.258-3.329-.775-2.379-4.011-7.718-7.036-13.593a76.543,76.543,0,0,1-4.482-9.59,63.529,63.529,0,0,1-1.844-8.106,1.844,1.844,0,0,0,.415-1.844c-.184-.922-1.752-2.877-1.844-3.191A1.254,1.254,0,0,1,134.2,93.3a1.66,1.66,0,0,0-.092-1.752c-.369-.664-1.282-.71-1.844-.738a35.88,35.88,0,0,0-5.21.636,36.251,36.251,0,0,0-5.026,1.383c-.48.221-1.309.6-1.411,1.346a1.66,1.66,0,0,0,.553,1.669,1.309,1.309,0,0,1,.618.977c.055.314-.673,2.766-.535,3.633a1.844,1.844,0,0,0,1.051,1.522,63.628,63.628,0,0,1,1.236,8.226,77.2,77.2,0,0,1-.636,10.568c-.664,6.575-1.734,12.726-1.586,15.225.074,1.365.148,3.347.968,3.191-1.5.968,1.005,18.333,2.066,18.849-.7.461-.092,1.789.341,3.154.258.811,5.1,13.888,6.455,20.868a31.907,31.907,0,0,1,.3,11.831c-.341,2.766,0,9.563,3.357,10.7,1.992.682,8.115.424,13.593-.609" transform="translate(-8.174 -6.534)"/><path class="g" d="M139.246,145.28l-1.392.258-.433,1.568,1.383-.258Z" transform="translate(-9.486 -10.774)"/><path class="h" d="M132.763,151.82c-.194.627-.581,1.54-.922,1.522s-.369-.922-.184-1.927a19.769,19.769,0,0,1,1.162-3.43c.48-1.116,1.051-1.4,1.226-.977,0,0-1.014,4.076-1.245,4.814m-6.455-.489a.664.664,0,0,1-.673-.378c-.267-.839.175-1.651.369-1.632.369,0,.35,1.263.3,2.01m-.673,3.209c-.111,0-.507-.8-.212-3.283a1.088,1.088,0,0,0,.839.563c-.065,1.309-.35,2.665-.627,2.72m10.144-8.761-1.5.286a1.209,1.209,0,0,1-.1.35c-1.844-1.586-3.2,2.766-3.643,4.131s-1.282,4.15-2.121,3.762-.526-2.6-.277-3.689c.221-.922.922-2.886,1.531-2.683.212.074.249.378.212.553-.719.2-.812,1.448-.387,1.669s.756-.7.784-1.632c0-.6-.2-1.116-.609-1.226-1.2-.314-1.964,1.844-2.112,2.232s-.415,1.457-.922,1.734c0-1.051.074-2.517-.664-2.6-.922-.1-1.236,2.121-1.319,3.052-.249,2.49.369,4.131.83,4.131s1.005-2.61,1.125-4.048a1.411,1.411,0,0,0,.406-.314,7.885,7.885,0,0,0,0,2.693c.157.848.692,1.356.977,1.365,1.107.065,1.632-1.4,2.1-2.37,0,1.263.332,1.844.839,1.9.8.083,1.319-.867,1.623-1.531.065.47.277,1.024.636,1.116a1.4,1.4,0,0,0,1.125-.544,14.45,14.45,0,0,0,2.139-4.306l-.526.1c-.729,2.158-1.475,2.951-1.706,2.9-.083,0-.194-.157-.138-.47s1.706-6.547,1.706-6.547" transform="translate(-8.49 -10.813)"/><path class="h" d="M131.621,156.27c-3.283,0-4.823,1.992-6.022,1.761-1-.184-1.558-2.01-1.844-5.247a16.5,16.5,0,0,1,.378-5.155c.277-.922.581-1.531.922-1.494s.277.277.231.489c-.489.258-.48,1.577-.148,1.614s.48-.729.48-1.6c0-.424-.194-1.042-.526-1.143s-1.07.673-1.429,1.9a17.521,17.521,0,0,0-.526,5.367c.175,2.877,1.042,5.533,2.324,5.893.692.175,3.762-2.462,6.289.452.48-2.1,4.159-1.226,5.349-.581a9.658,9.658,0,0,0-5.478-2.259" transform="translate(-8.372 -10.79)"/><path class="h" d="M152.708,151.09c-.083.47-.175,1.143-.406,1.116s-.2-.682-.221-1.457a11.9,11.9,0,0,1,.369-2.647c.212-.922.424-.922.544-.618,0,0-.166,2.849-.286,3.606m-3.919-.47c-.526.065-.922-.636-1-.922-.277-.756.3-1.577.682-1.4s.36,1.558.314,2.305m-1.217,3.255c-.5,0-.8-1.5-.065-3.836.231.415.747.977,1.245.922-.083,1.245-.673,2.9-1.18,2.9m6.538-4.26a4.149,4.149,0,0,1-.544,2.186.521.521,0,0,1-.111-.36c.065-1.356.157-3.984.129-4.915l-.526.138a2.177,2.177,0,0,1,0,.36c-.922-1.568-1.549,1.752-1.706,2.9-.138.987-.277,3.08-.692,3.025-.194,0-.286-1.392-.314-3.218a12.782,12.782,0,0,0,1.319-4.731,8.375,8.375,0,0,1,.046-1.079l-.277.194v.867a14.239,14.239,0,0,1-1.06,4.057c0-3.56.231-8.253.7-8.133.129,0,.24.544.3,1.245a1.707,1.707,0,0,0,.138-.24c-.166-.968-.341-1.6-.7-1.558-.692.065-1.226,3.919-1.309,7.617,0,.821,0,1.6-.055,2.333a1.309,1.309,0,0,1-.4.267c0-1.042,0-2.766-.765-2.886-1.1-.249-1.844,2.038-2.112,3.071-.747,3.338-.258,4.934.563,4.943,1.577,0,2.176-3.255,2.3-4.7a1.78,1.78,0,0,0,.424-.24c0,2.038.148,3.55.848,3.689.535.083.812-1.245.922-1.964.138.977.406,1.217.646,1.291s.747-.922.821-1.448c.046.387.212.922.443.977.627.138,1.1-2.462,1.162-3.689Z" transform="translate(-10.139 -10.387)"/><path class="h" d="M145.732,142.391a4.518,4.518,0,0,1,.2,2.195c-.166.922-.48,1.844-1.042,1.918-.922.046-.507-3.181.839-4.113m-2.222,5.893c-1.19.415-2.1,2.4-1.734,5.533a5.33,5.33,0,0,1,1.328-1.964c-.184-.922.267-2.942,1.033-2.84s.563,2.388.175,3.689-1.125,3.015-2.232,3c-.756,0-1.309-.922-1.439-1.688-.581-3.689,1.263-7.949,1.844-9.268a5.791,5.791,0,0,1,2.324-2.766.581.581,0,0,1,.618.092c-1.669,1.282-1.9,4.8-.664,4.98.719.1,1.291-.922,1.475-2.241a4.712,4.712,0,0,0-.267-2.462.83.83,0,0,1,.212-.074c.784-.194,1.724.922,2.628,1.549q.083-.71.194-1.3c-.922-.452-2.084-1.134-3.015-.775a2.294,2.294,0,0,0-.3.148,1.494,1.494,0,0,0-1.439-.526,5.312,5.312,0,0,0-2.914,2.4,18.157,18.157,0,0,0-2.914,8.908c-.12,2.084.71,4.057,2.176,4.491s2.766-1.125,3.477-2.536a9.646,9.646,0,0,0,.627-1.752,8.493,8.493,0,0,0,.277-2.462c-.046-1.3-.544-2.361-1.485-2.038" transform="translate(-9.562 -10.467)"/><path class="h" d="M151.19,144.071c1.706-.221,1.5-2.766,1.448-3.781-.12,1.346-.535,2.213-1.328,2.379,0,.415-.083.922-.12,1.4" transform="translate(-10.557 -10.385)"/><path class="h" d="M155.533,152.6a.107.107,0,0,0,0-.138c-.055-.083-.065-.055-.092,0h-.065v.184Zm0,.489-.092.046-.148-.765.148-.083c.111-.055.184,0,.221.148s0,.212-.065.249l.175.277-.1.055-.166-.267h0Zm-.12-.922c-.157.074-.24.36-.175.682s.231.48.387.406h0c.157-.083.231-.36.175-.692s-.24-.47-.387-.4m.24,1.226c-.2.1-.433,0-.526-.48a.842.842,0,0,1,.258-.922c.212-.138.406.046.489.489s0,.775-.221.876" transform="translate(-10.862 -11.293)"/><path class="i" d="M67.627,86.617,46.187,90.2a19.909,19.909,0,0,0-16.35,22.925h0a19.9,19.9,0,0,0,22.925,16.341L83.94,124.25l11.4,7.248-2.84-16.94-1.752-10.43-.194-1.171A19.909,19.909,0,0,0,67.627,86.617Z" transform="translate(-1.09 -4.186)"/><path class="f" d="M32.766,89.246h0a1.309,1.309,0,0,1-1.512-1.079L30.008,80.79a1.319,1.319,0,0,1,1.079-1.522h0a1.328,1.328,0,0,1,1.522,1.088l1.245,7.377a1.319,1.319,0,0,1-1.088,1.512Z" transform="translate(-1.123 -5.634)"/><path class="f" d="M27.071,92.827h0a1.319,1.319,0,0,1-1.844.3L19.1,88.8a1.328,1.328,0,0,1-.314-1.844h0a1.319,1.319,0,0,1,1.844-.314l6.132,4.371A1.328,1.328,0,0,1,27.071,92.827Z" transform="translate(-0.232 -6.19)"/><path class="f" d="M25.556,99.286h0a1.309,1.309,0,0,1-1.079,1.494L17.1,102.025a1.319,1.319,0,0,1-1.522-1.079h0a1.319,1.319,0,0,1,1.079-1.512l7.433-1.245A1.309,1.309,0,0,1,25.556,99.286Z" transform="translate(0 -7.107)"/><path class="j" d="M191.765,121.062l21.21-4.611a19.9,19.9,0,0,1,23.718,15.225h0a19.909,19.909,0,0,1-15.2,23.7L209.454,158,190.6,162.107l-7.875,10.964-3.689-16.783-2.259-10.337-.249-1.153a19.909,19.909,0,0,1,15.234-23.736Z" transform="translate(-12.494 -8.494)"/><path class="h" d="M67.627,86.617,46.187,90.2a19.909,19.909,0,0,0-16.35,22.925h0a19.9,19.9,0,0,0,22.925,16.341L83.94,124.25l11.4,7.248-2.84-16.94-1.752-10.43-.194-1.171A19.909,19.909,0,0,0,67.627,86.617Z" transform="translate(-1.09 -6.186)"/><path class="k" d="M191.765,121.062l21.21-4.611a19.9,19.9,0,0,1,23.718,15.225h0a19.909,19.909,0,0,1-15.2,23.7L190.6,162.107l-7.875,10.964-3.689-16.783-2.259-10.337-.249-1.153a19.909,19.909,0,0,1,15.234-23.736Z" transform="translate(-12.494 -11.494)"/></g></svg>